<svg width="48" height="48" viewBox="0 0 48 48" fill="none" xmlns="http://www.w3.org/2000/svg">
<rect x="4.44971" y="13.0791" width="38.7763" height="23.6668" fill="#09182B"/>
<path d="M23.6982 19.4355C22.5126 19.4355 21.5178 19.8715 20.7041 20.7497C19.8936 21.6247 19.4868 22.6835 19.4868 23.9229C19.4868 25.1623 19.8936 26.218 20.7041 27.0837C21.5146 27.9525 22.5126 28.3853 23.6982 28.3853C24.8837 28.3853 25.8786 27.9525 26.6922 27.0837C27.5027 26.2148 27.9095 25.1623 27.9095 23.9229C27.9095 22.6835 27.5027 21.6247 26.6922 20.7497C25.8817 19.8746 24.8837 19.4355 23.6982 19.4355Z" fill="url(#paint0_linear_3225_52351)"/>
<path d="M43.4136 23.5609L47.9428 17.0432C44.8979 7.181 35.5534 0 24.4958 0C10.9654 0 0 10.7435 0 24C0 37.2565 10.9654 48 24.4958 48C35.6297 48 45.025 40.7193 48 30.7513L43.4136 23.564V23.5609ZM15.0846 19.7742H8.50854V22.7762H14.7604V25.501H8.50854V30.9506H5.34287V17.0494H15.0846V19.7742ZM23.6885 31.0876C21.5908 31.0876 19.8236 30.4025 18.3901 29.0292C16.9567 27.6559 16.2384 25.9494 16.2384 23.9097C16.2384 21.87 16.9567 20.1604 18.3901 18.7902C19.8236 17.4169 21.5908 16.7318 23.6885 16.7318C25.7863 16.7318 27.5503 17.4169 28.9869 18.7902C30.4203 20.1635 31.1387 21.87 31.1387 23.9097C31.1387 25.9494 30.4203 27.659 28.9869 29.0292C27.5534 30.4025 25.7863 31.0876 23.6885 31.0876ZM39.7902 30.9474L36.7676 26.3729L33.764 30.9474H29.9468L34.7175 23.8287L30.2741 17.0494H34.0691L36.7676 21.1662L39.466 17.0494H43.2833L38.859 23.7509L43.6488 30.9506H39.7934L39.7902 30.9474Z" fill="url(#paint1_linear_3225_52351)"/>
<defs>
<linearGradient id="paint0_linear_3225_52351" x1="23.6982" y1="45.0985" x2="23.6982" y2="-0.634522" gradientUnits="userSpaceOnUse">
<stop offset="0.06" stop-color="#FF4A46"/>
<stop offset="0.27" stop-color="#FF5B53"/>
<stop offset="1" stop-color="#FF967F"/>
</linearGradient>
<linearGradient id="paint1_linear_3225_52351" x1="24" y1="45.0977" x2="24" y2="-0.635268" gradientUnits="userSpaceOnUse">
<stop offset="0.06" stop-color="#FF4A46"/>
<stop offset="0.27" stop-color="#FF5B53"/>
<stop offset="1" stop-color="#FF967F"/>
</linearGradient>
</defs>
</svg>
